<svg id="visual" viewBox="0 0 960 540" width="960" height="540" xmlns="http://www.w3.org/2000/svg" xmlns:xlink="http://www.w3.org/1999/xlink" version="1.1"><rect x="0" y="0" width="960" height="540" fill="#001220"></rect><path d="M0 222L22.8 213.2C45.7 204.3 91.3 186.7 137 182.5C182.7 178.3 228.3 187.7 274 189.7C319.7 191.7 365.3 186.3 411.2 179.8C457 173.3 503 165.7 548.8 170C594.7 174.3 640.3 190.7 686 191.7C731.7 192.7 777.3 178.3 823 178.8C868.7 179.3 914.3 194.7 937.2 202.3L960 210L960 0L937.2 0C914.3 0 868.7 0 823 0C777.3 0 731.7 0 686 0C640.3 0 594.7 0 548.8 0C503 0 457 0 411.2 0C365.3 0 319.7 0 274 0C228.3 0 182.7 0 137 0C91.3 0 45.7 0 22.8 0L0 0Z" fill="#fa7268"></path><path d="M0 155L22.8 147.2C45.7 139.3 91.3 123.7 137 116C182.7 108.3 228.3 108.7 274 113.2C319.7 117.7 365.3 126.3 411.2 134C457 141.7 503 148.3 548.8 155.5C594.7 162.7 640.3 170.3 686 164.3C731.7 158.3 777.3 138.7 823 135C868.7 131.3 914.3 143.7 937.2 149.8L960 156L960 0L937.2 0C914.3 0 868.7 0 823 0C777.3 0 731.7 0 686 0C640.3 0 594.7 0 548.8 0C503 0 457 0 411.2 0C365.3 0 319.7 0 274 0C228.3 0 182.7 0 137 0C91.3 0 45.7 0 22.8 0L0 0Z" fill="#ef5f67"></path><path d="M0 89L22.8 90.7C45.7 92.3 91.3 95.7 137 95.5C182.7 95.3 228.3 91.7 274 94.5C319.7 97.3 365.3 106.7 411.2 106.8C457 107 503 98 548.8 92.8C594.7 87.7 640.3 86.3 686 91.8C731.7 97.3 777.3 109.7 823 116.7C868.7 123.7 914.3 125.3 937.2 126.2L960 127L960 0L937.2 0C914.3 0 868.7 0 823 0C777.3 0 731.7 0 686 0C640.3 0 594.7 0 548.8 0C503 0 457 0 411.2 0C365.3 0 319.7 0 274 0C228.3 0 182.7 0 137 0C91.3 0 45.7 0 22.8 0L0 0Z" fill="#e34c67"></path><path d="M0 66L22.8 63.7C45.7 61.3 91.3 56.7 137 59.5C182.7 62.3 228.3 72.7 274 79.2C319.7 85.7 365.3 88.3 411.2 87.8C457 87.3 503 83.7 548.8 78C594.7 72.3 640.3 64.7 686 61.3C731.7 58 777.3 59 823 61C868.7 63 914.3 66 937.2 67.5L960 69L960 0L937.2 0C914.3 0 868.7 0 823 0C777.3 0 731.7 0 686 0C640.3 0 594.7 0 548.8 0C503 0 457 0 411.2 0C365.3 0 319.7 0 274 0C228.3 0 182.7 0 137 0C91.3 0 45.7 0 22.8 0L0 0Z" fill="#d53867"></path><path d="M0 60L22.8 55.2C45.7 50.3 91.3 40.7 137 38.3C182.7 36 228.3 41 274 44C319.7 47 365.3 48 411.2 47.2C457 46.3 503 43.7 548.8 39.3C594.7 35 640.3 29 686 28.5C731.7 28 777.3 33 823 37.8C868.7 42.7 914.3 47.3 937.2 49.7L960 52L960 0L937.2 0C914.3 0 868.7 0 823 0C777.3 0 731.7 0 686 0C640.3 0 594.7 0 548.8 0C503 0 457 0 411.2 0C365.3 0 319.7 0 274 0C228.3 0 182.7 0 137 0C91.3 0 45.7 0 22.8 0L0 0Z" fill="#c62368"></path></svg>