<svg id="visual" viewBox="0 0 960 540" width="960" height="540" xmlns="http://www.w3.org/2000/svg" xmlns:xlink="http://www.w3.org/1999/xlink" version="1.1"><rect x="0" y="0" width="960" height="540" fill="#001220"></rect><path d="M0 364L22.8 365.3C45.7 366.7 91.3 369.3 137 369.8C182.7 370.3 228.3 368.7 274 363.8C319.7 359 365.3 351 411.2 351.3C457 351.7 503 360.3 548.8 361.2C594.7 362 640.3 355 686 354.8C731.7 354.7 777.3 361.3 823 359.8C868.7 358.3 914.3 348.7 937.2 343.8L960 339L960 541L937.2 541C914.3 541 868.7 541 823 541C777.3 541 731.7 541 686 541C640.3 541 594.7 541 548.8 541C503 541 457 541 411.2 541C365.3 541 319.7 541 274 541C228.3 541 182.7 541 137 541C91.3 541 45.7 541 22.8 541L0 541Z" fill="#fa7268"></path><path d="M0 374L22.8 379C45.7 384 91.3 394 137 390.8C182.7 387.7 228.3 371.3 274 375.7C319.7 380 365.3 405 411.2 406.7C457 408.3 503 386.7 548.8 385.3C594.7 384 640.3 403 686 413.3C731.7 423.7 777.3 425.3 823 418.3C868.7 411.3 914.3 395.7 937.2 387.8L960 380L960 541L937.2 541C914.3 541 868.7 541 823 541C777.3 541 731.7 541 686 541C640.3 541 594.7 541 548.8 541C503 541 457 541 411.2 541C365.3 541 319.7 541 274 541C228.3 541 182.7 541 137 541C91.3 541 45.7 541 22.8 541L0 541Z" fill="#ef5f67"></path><path d="M0 406L22.8 405.8C45.7 405.7 91.3 405.3 137 413.8C182.7 422.3 228.3 439.7 274 445.3C319.7 451 365.3 445 411.2 445C457 445 503 451 548.8 445.3C594.7 439.7 640.3 422.3 686 417.7C731.7 413 777.3 421 823 423.2C868.7 425.3 914.3 421.7 937.2 419.8L960 418L960 541L937.2 541C914.3 541 868.7 541 823 541C777.3 541 731.7 541 686 541C640.3 541 594.7 541 548.8 541C503 541 457 541 411.2 541C365.3 541 319.7 541 274 541C228.3 541 182.7 541 137 541C91.3 541 45.7 541 22.8 541L0 541Z" fill="#e34c67"></path><path d="M0 477L22.8 475C45.7 473 91.3 469 137 464C182.7 459 228.3 453 274 448.3C319.7 443.7 365.3 440.3 411.2 446.3C457 452.3 503 467.7 548.8 473.2C594.7 478.7 640.3 474.3 686 474.2C731.7 474 777.3 478 823 476.7C868.7 475.3 914.3 468.7 937.2 465.3L960 462L960 541L937.2 541C914.3 541 868.7 541 823 541C777.3 541 731.7 541 686 541C640.3 541 594.7 541 548.8 541C503 541 457 541 411.2 541C365.3 541 319.7 541 274 541C228.3 541 182.7 541 137 541C91.3 541 45.7 541 22.8 541L0 541Z" fill="#d53867"></path><path d="M0 482L22.8 486.2C45.7 490.3 91.3 498.7 137 500.7C182.7 502.7 228.3 498.3 274 496C319.7 493.7 365.3 493.3 411.2 490C457 486.7 503 480.3 548.8 479.2C594.7 478 640.3 482 686 485.8C731.7 489.7 777.3 493.3 823 491.5C868.7 489.7 914.3 482.3 937.2 478.7L960 475L960 541L937.2 541C914.3 541 868.7 541 823 541C777.3 541 731.7 541 686 541C640.3 541 594.7 541 548.8 541C503 541 457 541 411.2 541C365.3 541 319.7 541 274 541C228.3 541 182.7 541 137 541C91.3 541 45.7 541 22.8 541L0 541Z" fill="#c62368"></path></svg>